<?xml version="1.0" encoding="utf-8"?>
<!-- Generator: Adobe Illustrator 22.0.1, SVG Export Plug-In . SVG Version: 6.00 Build 0)  -->
<svg version="1.1" id="Layer_1" xmlns="http://www.w3.org/2000/svg" xmlns:xlink="http://www.w3.org/1999/xlink" x="0px" y="0px"
	 viewBox="0 0 530 200" style="enable-background:new 0 0 530 200;" xml:space="preserve">
<style type="text/css">
	.st0{fill-rule:evenodd;clip-rule:evenodd;fill:#F9F9FA;}
	.st1{fill-rule:evenodd;clip-rule:evenodd;fill:#E30613;}
	.st2{fill-rule:evenodd;clip-rule:evenodd;fill:#271D67;}
	.st3{fill:#271D67;}
	.st4{fill:#E30613;}
</style>
<g>
	<path class="st0" d="M166.6,108.2c0,38.1-29.8,69-66.6,69c-36.8,0-66.6-30.9-66.6-69c0-38.1,29.8-69,66.6-69
		C136.8,39.2,166.6,70.1,166.6,108.2"/>
	<path class="st1" d="M100,9.8c13.9,0,25.2,11.3,25.2,25.2c0,13.9-11.3,25.2-25.2,25.2c-13.9,0-25.2-11.3-25.2-25.2
		C74.8,21.1,86.1,9.8,100,9.8"/>
	<path class="st1" d="M71.9,146.6c4.2,0,7.7,3.5,7.7,7.7c0,4.2-3.5,7.8-7.7,7.8c-4.2,0-7.7-3.5-7.7-7.8
		C64.2,150.1,67.7,146.6,71.9,146.6"/>
	<path class="st1" d="M100,149.1c4.2,0,7.7,3.5,7.7,7.7c0,4.3-3.5,7.8-7.7,7.8c-4.2,0-7.7-3.5-7.7-7.8
		C92.3,152.6,95.8,149.1,100,149.1"/>
	<path class="st1" d="M86,148.4c4.2,0,7.7,3.5,7.7,7.7c0,4.2-3.5,7.7-7.7,7.7c-4.3,0-7.7-3.5-7.7-7.7
		C78.3,151.8,81.7,148.4,86,148.4"/>
	<path class="st1" d="M128.1,146.6c-4.2,0-7.7,3.5-7.7,7.7c0,4.2,3.5,7.8,7.7,7.8c4.3,0,7.7-3.5,7.7-7.8
		C135.9,150.1,132.4,146.6,128.1,146.6"/>
	<path class="st1" d="M114,148.4c-4.2,0-7.8,3.5-7.8,7.7c0,4.2,3.5,7.7,7.8,7.7c4.2,0,7.7-3.5,7.7-7.7
		C121.7,151.8,118.3,148.4,114,148.4"/>
	<path class="st2" d="M127.2,114.3v-1.8h0.6l-0.6-5.1v0.1v-1.6h1.6l1.9,10.2h-2.5l-0.2-1.8H127.2z M131.7,105.9h2.5l1.9,6.1v-6.1
		h2.3v10.2h-2.6l-1.9-6.2v6.2h-2.2V105.9z M127.2,105.9v1.6l-0.7,4.9h0.7v1.8h-0.8l-0.3,1.8h-2.3l1.9-10.2H127.2z M78.3,111.9v-1.9
		c0.3,0,0.5-0.1,0.6-0.3c0.1-0.2,0.2-0.5,0.2-1c0-0.5-0.1-0.8-0.4-0.9c-0.1,0-0.3,0-0.4-0.1v-1.9h0.5c0.7,0,1.3,0.2,1.9,0.5
		c0.5,0.3,0.8,1,0.8,1.9v0.3c0,0.6-0.1,1-0.2,1.3c-0.2,0.3-0.3,0.5-0.6,0.6c-0.1,0-0.3,0.1-0.3,0.1c-0.1,0-0.2,0.1-0.3,0.1
		c0.4,0.2,0.7,0.3,1,0.6c0.3,0.3,0.4,0.6,0.4,1.1v2.9c0,0.1,0,0.3,0,0.3c0,0.1,0,0.2,0,0.2v0.1c0,0,0,0,0,0h-2.3c0,0,0,0,0,0
		c0,0-0.1,0-0.1-0.1c0,0,0-0.1-0.1-0.3c0-0.1,0-0.3,0-0.5v-2.5c0-0.4-0.1-0.6-0.3-0.7C78.6,112,78.5,111.9,78.3,111.9 M82.6,112.7
		h2.2v0.1l0,0v0.3c0,0,0,0.1,0,0.2c0,0.4,0.1,0.7,0.3,0.9c0.2,0.2,0.3,0.3,0.6,0.3h0.1h0.1c0.2,0,0.4-0.1,0.5-0.3
		c0.1-0.1,0.2-0.3,0.2-0.5c0-0.2,0-0.4-0.1-0.6c-0.1-0.2-0.3-0.4-0.4-0.6c-0.1,0-0.2-0.1-0.3-0.2c-0.1-0.1-0.2-0.2-0.3-0.2
		c0,0,0-0.1-0.1-0.1c0,0,0,0-0.1-0.1c-0.1-0.1-0.3-0.2-0.4-0.3c-0.2-0.1-0.3-0.2-0.5-0.3c-0.4-0.3-0.7-0.6-1.1-1.1
		c-0.3-0.4-0.5-1-0.5-1.7c0-0.1,0-0.3,0-0.5c0-0.2,0.1-0.4,0.2-0.6c0.2-0.4,0.4-0.8,0.8-1.1c0.4-0.3,0.9-0.5,1.5-0.5
		c0.9,0,1.7,0.2,2.4,0.6c0.7,0.4,1,1.2,1,2.3v0.1v0.2v0.1c0,0,0,0,0,0v0.1v0.1l-2.2,0v-0.2c0,0,0-0.1,0-0.2c0-0.3-0.1-0.6-0.3-0.9
		c-0.1-0.3-0.3-0.4-0.5-0.4h-0.1c-0.3,0-0.5,0.2-0.6,0.3c-0.1,0.1-0.2,0.3-0.2,0.4c0,0,0,0.1,0,0.2c0,0.1,0,0.1,0.1,0.2
		c0,0.1,0.1,0.2,0.2,0.3c0.1,0.1,0.1,0.2,0.2,0.3c0.1,0,0.1,0.1,0.2,0.2c0.1,0.1,0.1,0.1,0.2,0.2c0.2,0.1,0.3,0.3,0.6,0.4
		c0.2,0.1,0.4,0.3,0.6,0.4c0.5,0.3,0.9,0.8,1.4,1.3c0.4,0.5,0.6,1.1,0.6,1.9v0.4c0,0.6-0.4,1.2-1,1.6c-0.6,0.4-1.3,0.7-2.2,0.7h-0.4
		c-1,0-1.7-0.3-2.1-0.8c-0.4-0.5-0.6-1-0.7-1.6v-0.2v-0.2v-0.2v-0.2c0,0,0-0.1,0-0.1V113L82.6,112.7
		C82.6,112.8,82.6,112.8,82.6,112.7 M89.9,105.9h5.4v2h-2.9v2.1h2.6v2h-2.6v2.2h2.9v2h-5.4V105.9z M96.4,105.9h2.3v4.2l1.6-4.2h2.6
		l-2,4.4l2,5.8h-2.6l-1-3.5l-0.5,0.7v2.8h-2.3V105.9z M106.2,105.9v7.6c0,0.3,0,0.6,0.2,0.8c0.1,0.1,0.3,0.2,0.5,0.2h0
		c0.2,0,0.3-0.1,0.4-0.3c0.1-0.2,0.2-0.4,0.2-0.7v-7.6h2.4v7.8c0,0.8-0.3,1.4-0.9,1.9c-0.5,0.5-1.3,0.8-2.1,0.8
		c-0.9,0-1.6-0.3-2.2-0.7c-0.5-0.5-0.8-1.2-0.8-2.2v-7.6H106.2z M110.7,105.9h5.4v2h-1.5v8.2h-2.3V108h-1.5V105.9z M119.3,105.9v7.6
		c0,0.3,0,0.6,0.2,0.8c0.2,0.1,0.3,0.2,0.5,0.2h0h0c0.1,0,0.3-0.1,0.4-0.3c0.1-0.2,0.2-0.4,0.2-0.7v-7.6h2.3v7.8
		c0,0.8-0.3,1.4-0.8,1.9c-0.6,0.5-1.3,0.8-2.1,0.8c-0.9,0-1.6-0.3-2.2-0.7c-0.6-0.5-0.9-1.2-0.9-2.2v-7.6H119.3z M64.7,105.9
		c1.5,0,2.3,0.3,2.7,0.9c0.3,0.6,0.5,1.3,0.6,2.2c0,1.3-0.3,2.1-0.7,2.5c-0.5,0.4-1,0.7-1.6,0.7h-0.1h-0.1h-0.7v-1.9
		c0.3,0,0.4-0.1,0.5-0.2c0.2-0.2,0.3-0.6,0.3-1.2c0-0.4,0-0.7-0.2-0.9c-0.1-0.1-0.3-0.2-0.6-0.2V105.9z M78.3,105.9v1.9
		c-0.2,0-0.5,0-0.7,0v2.2c0,0,0,0,0,0h0h0.1h0.1H78h0.1h0.3v1.9c-0.1,0-0.2,0-0.3,0h-0.2c-0.1,0-0.1,0-0.2,0v4.3h-2.3v-10.2H78.3z
		 M68.8,105.9h5.4v2h-3v2.1h2.6v2h-2.6v2.2h3v2h-5.4V105.9z M61.6,105.9h3h0.1v2c-0.1,0-0.2,0-0.3,0H64v2.6c0.3,0,0.6,0,0.7-0.1v1.9
		H64v3.9h-2.4V105.9z"/>
	<path class="st2" d="M131.6,133V130h0.8l-0.7-8l0,0.2v-2.6h2l2.3,16.2h-3l-0.3-2.8H131.6z M131.6,119.6v2.6l-0.8,7.8h0.8v2.9h-1
		l-0.4,2.8h-2.9l2.4-16.2H131.6z M80,136.1v-2.8c0,0,0,0,0.1,0c0.2,0,0.4-0.2,0.5-0.4c0.2-0.3,0.3-0.5,0.3-0.9v-8.3v-0.1
		c0-0.4-0.1-0.7-0.3-0.9c-0.2-0.2-0.3-0.3-0.6-0.3h0v-2.9h0h0.1c0.8,0,1.6,0.3,2.4,0.9c0.7,0.6,1.1,1.7,1.3,3.2v7.8
		c0,1.3-0.3,2.4-1,3.3c-0.6,0.9-1.5,1.3-2.7,1.3H80z M85.4,119.6h3.1l2.4,9.6v-9.6h2.9v16.2h-3.3l-2.4-9.7v9.7h-2.7V119.6z
		 M102.6,125.1h-2.8v-1.5c0-0.5-0.1-0.8-0.3-1c-0.2-0.3-0.3-0.4-0.6-0.4h0h0h0c-0.3,0-0.4,0.1-0.6,0.3c-0.2,0.2-0.3,0.5-0.3,0.8v7.9
		c0,0.6,0.1,1.1,0.3,1.4c0.2,0.3,0.4,0.5,0.6,0.6h0.1H99h0h0c0.2,0,0.3-0.1,0.5-0.3c0.1-0.2,0.2-0.5,0.2-0.8v-2.1h-1.1v-3h3.9v8.9
		h-2.5v-1.3c0,0,0,0.1-0.1,0.2c0,0,0,0.1-0.1,0.1c-0.1,0.3-0.3,0.6-0.6,0.8c-0.3,0.2-0.7,0.3-1.4,0.3c-0.7,0-1.3-0.3-1.7-0.8
		c-0.4-0.5-0.7-1.1-0.9-1.8c-0.1-0.3-0.2-0.6-0.2-0.9c0-0.3,0-0.6,0-0.8v-8.2c0-1.4,0.4-2.4,1.2-3.2c0.8-0.8,1.6-1.2,2.6-1.2h0.1H99
		c0.8,0,1.6,0.3,2.4,0.9c0.7,0.6,1.1,1.5,1.2,2.7V125.1z M104,125.9h4.2v2.9H104V125.9z M109.5,119.6h3v6.1h1.8v-6.1h2.9v16.2h-2.9
		v-6.7h-1.8v6.7h-3V119.6z M121.7,119.6v12c0,0.5,0.1,0.9,0.3,1.2c0.2,0.3,0.3,0.4,0.6,0.4h0h0c0.2,0,0.3-0.2,0.5-0.4
		c0.1-0.3,0.2-0.6,0.2-1.1v-12h2.9V132c0,1.2-0.3,2.2-1,3c-0.7,0.8-1.6,1.2-2.6,1.2c-1.1,0-2-0.3-2.7-1.1c-0.7-0.7-1-1.9-1-3.4v-12
		H121.7z M64.2,119.6h6.6v3.2h-1.9v12.9h-2.9v-12.9h-1.9V119.6z M80,119.5v2.9h0c-0.2,0-0.4,0.1-0.6,0.3c-0.2,0.2-0.3,0.5-0.3,0.9
		v8.2c0,0.5,0.1,0.9,0.3,1.1c0.1,0.3,0.3,0.4,0.5,0.4h0h0H80v2.8c-1.4-0.1-2.3-0.6-2.9-1.3c-0.6-0.8-0.9-1.9-1-3.2v-7.8
		c0.1-1.3,0.4-2.4,1.1-3.2C77.9,119.8,78.8,119.5,80,119.5 M74.8,135.8h-3v-16.1h3V135.8z"/>
	<path class="st2" d="M119.3,141.2v-1c0.2,0,0.3,0,0.3-0.1c0.1-0.1,0.1-0.3,0.1-0.5c0-0.3-0.1-0.4-0.3-0.5h-0.2v-1h0.3
		c0.4,0,0.7,0.1,1,0.3c0.3,0.2,0.4,0.5,0.4,1v0.1c0,0.3,0,0.5-0.1,0.7c-0.1,0.1-0.2,0.3-0.3,0.3c-0.1,0-0.1,0.1-0.2,0.1
		c0,0-0.1,0-0.2,0c0.3,0.1,0.4,0.2,0.6,0.3c0.1,0.1,0.2,0.3,0.2,0.6v1.5v0.1c0,0.1,0,0.1,0,0.1v0.1h-1.3c0,0,0,0,0-0.1
		c0,0,0,0-0.1-0.1V143v-1.3c0-0.2-0.1-0.3-0.2-0.4C119.4,141.3,119.4,141.2,119.3,141.2 M124.1,138.2v3.9c0,0.2,0,0.3,0.1,0.4
		c0.1,0.1,0.2,0.1,0.3,0.1h0c0.1,0,0.1-0.1,0.2-0.2c0.1,0,0.1-0.2,0.1-0.3v-3.9h1.3v4c0,0.4-0.2,0.7-0.5,1c-0.3,0.2-0.7,0.3-1.2,0.3
		c-0.5,0-1-0.1-1.3-0.3c-0.3-0.2-0.5-0.6-0.5-1.1v-3.9H124.1z M119.3,138.2v1c-0.1,0-0.3,0-0.4,0v1.1h0h0h0.1c0,0,0,0,0,0h0.1
		c0,0,0.1,0,0.1,0v1h-0.2H119h-0.1v2.2h-1.3v-5.2H119.3z M114.1,142.5v-0.9h0.3l-0.3-2.6l0,0v-0.8h0.9l1,5.2h-1.3l-0.1-0.9H114.1z
		 M114.1,138.2v0.8l-0.3,2.6h0.3v0.9h-0.4l-0.2,0.9h-1.3l1.1-5.2H114.1z M109.1,143.4v-0.9c0.1,0,0.2-0.1,0.3-0.2
		c0.1-0.2,0.1-0.3,0.1-0.5v0v-0.1c0-0.1-0.1-0.3-0.1-0.4c-0.1-0.1-0.2-0.2-0.3-0.2v-0.9c0.1,0,0.2,0,0.3-0.2c0-0.1,0.1-0.3,0.1-0.4
		v0c0-0.2,0-0.3-0.1-0.4c-0.1-0.1-0.2-0.2-0.3-0.2v-0.9c0.6,0,0.9,0.1,1.2,0.4c0.2,0.3,0.3,0.5,0.4,0.8v0v0c0,0.3-0.1,0.6-0.3,0.8
		c-0.1,0.3-0.3,0.4-0.5,0.4h0c0.3,0,0.5,0.1,0.6,0.3c0.2,0.3,0.2,0.6,0.2,0.9v0.1v0.1c0,0.3-0.2,0.6-0.4,0.9
		c-0.2,0.3-0.6,0.4-1.1,0.4H109.1z M109.1,138.2v0.9l0,0h-0.3v1.2h0.3h0v0.9h0h-0.3v1.5h0.3h0v0.9h-1.7v-5.2H109.1z M95.8,141.2v-1
		c0.1,0,0.3,0,0.3-0.1c0.1-0.1,0.1-0.3,0.1-0.5c0-0.3-0.1-0.4-0.3-0.5h-0.2v-1h0.3c0.4,0,0.7,0.1,1,0.3c0.3,0.2,0.4,0.5,0.4,1v0.1
		c0,0.3,0,0.5-0.1,0.7c-0.1,0.1-0.2,0.3-0.3,0.3s-0.1,0.1-0.2,0.1c0,0-0.1,0-0.2,0c0.3,0.1,0.4,0.2,0.6,0.3c0.1,0.1,0.2,0.3,0.2,0.6
		v1.5v0.1c0,0.1,0,0.1,0,0.1v0.1h-1.3c0,0,0,0-0.1-0.1c0,0,0,0,0-0.1c0,0,0-0.1,0-0.3v-1.3c0-0.2,0-0.3-0.2-0.4
		C95.9,141.3,95.8,141.2,95.8,141.2 M95.8,138.2v1c-0.1,0-0.3,0-0.4,0v1.1h0h0h0.1c0,0,0,0,0,0h0c0.1,0,0.1,0,0.2,0v1h-0.2h-0.1
		h-0.1v2.2h-1.3v-5.2H95.8z M90.7,143.5v-0.9c0,0,0,0,0,0c0.1,0,0.2,0,0.2-0.1c0.1,0,0.1-0.1,0.1-0.3v-2.7v0c0-0.1,0-0.2-0.1-0.3
		c-0.1-0.1-0.1-0.1-0.3-0.1v-1h0c0.4,0,0.7,0.1,1.1,0.3c0.3,0.2,0.5,0.6,0.6,1v2.6c0,0.4-0.1,0.8-0.4,1
		C91.7,143.4,91.3,143.5,90.7,143.5L90.7,143.5z M90.7,138.2v1h0c-0.1,0-0.2,0-0.3,0.1c-0.1,0.1-0.1,0.2-0.1,0.3v2.6
		c0,0.2,0,0.3,0.1,0.3c0,0.1,0.1,0.1,0.2,0.2h0h0v0.9c-0.6,0-1.1-0.2-1.3-0.4c-0.3-0.3-0.4-0.6-0.4-1v-2.5c0-0.4,0.2-0.8,0.5-1
		C89.7,138.3,90.1,138.2,90.7,138.2 M80.4,143.5v-0.9c0,0,0,0,0,0c0.1,0,0.2,0,0.3-0.1c0,0,0.1-0.1,0.1-0.3v-2.7v0
		c0-0.1,0-0.2-0.1-0.3c-0.1-0.1-0.2-0.1-0.3-0.1h0v-1h0c0.4,0,0.7,0.1,1.1,0.3c0.3,0.2,0.5,0.6,0.6,1v2.6c0,0.4-0.1,0.8-0.4,1
		C81.4,143.4,81,143.5,80.4,143.5L80.4,143.5z M83.7,138.2h1.3v2h0.8v-2h1.3v5.2h-1.3v-2.2h-0.8v2.2h-1.3V138.2z M75.7,138.2H77v4.1
		c0,0.3-0.1,0.6-0.3,0.9c-0.3,0.2-0.7,0.3-1.3,0.3h-0.1c-0.4,0-0.7-0.1-1-0.3c-0.3-0.2-0.4-0.5-0.4-0.8v-1h1.3v0.9
		c0,0.1,0,0.2,0,0.3c0,0,0.1,0.1,0.2,0.1h0c0.1,0,0.1-0.1,0.2-0.1c0-0.1,0.1-0.2,0.1-0.3V138.2z M80.4,138.2v1c-0.1,0-0.2,0-0.3,0.1
		c0,0.1-0.1,0.2-0.1,0.3v2.6c0,0.2,0,0.3,0.1,0.3c0.1,0.1,0.1,0.1,0.2,0.2h0h0v0.9c-0.6,0-1-0.2-1.3-0.4c-0.3-0.3-0.4-0.6-0.5-1
		v-2.5c0-0.4,0.2-0.8,0.5-1C79.4,138.3,79.8,138.2,80.4,138.2"/>
	<path class="st1" d="M114.5,69.6c0,0-0.3-0.4,0.1-0.5c0.4-0.1,1,0,1.2,0.3c0.2,0.4,0.3,0.9,0.5,1.2c0.2,0.3,0.2,0.3,0.8,0.2
		c0.7-0.1,1.3,0.2,1.2-1c-0.1-1.2,0.3-3.6,0-4.2c-0.3-0.6-1-1-0.5-1.2c0.5-0.2,0.6-0.2,0.9-0.4c0.3-0.2,0.6,0.2,0.9,0.4
		c0.3,0.2,0.6,0.6,0.6,1.5c0,0.8-0.3,3.1-0.3,3.5c0,0.3,0,0.4,0.5,0.4c0.5,0,1.3,0.3,1.6-0.4c0.3-0.6,0.2-1,0.2-1.1
		c0-0.2,0.3-0.7,0.7-0.3c0.5,0.4,1,1,0.7,1.7c-0.2,0.6-1,2.5-1.6,2.8c-0.5,0.3-0.8,0.1-0.9-0.5c-0.1-0.6-0.1-1-0.6-1
		c-0.5,0-0.9-0.1-1.7,0.4c-0.8,0.6-1.6,0.6-2,0.8c-0.5,0.2-0.3,0.3-0.3,0.5c-0.1,0.2-0.5,0.6-1,0.1c-0.4-0.4-0.6-0.5-0.7-0.6
		c-0.1-0.1-0.2-0.3,0-0.6c0.3-0.3,0.5-1,0-1.3C114.4,70.1,114.4,69.6,114.5,69.6"/>
	<path class="st1" d="M106.9,80.7c-0.5-1,0.2-1.3,0.9-0.8c0.7,0.4,1.1,1.1,1.9,1.4c0.8,0.3,1.9,1.7,2.8,3c0.9,1.3,2.7,2.9,3.9,3.6
		c1.2,0.7,1.4,1.7-0.4,1.8c-1.9,0-3.2-0.1-4.3-0.9c-1.2-0.7-0.9-2.1-1.3-2.6c-0.4-0.5-0.6-0.3-1-0.7c-0.4-0.4-0.2-0.6-0.5-1.6
		C108.6,83,107.4,81.6,106.9,80.7"/>
	<path class="st1" d="M105.2,84.4c0.4-1.1,1.3-1.1,1.9-0.5c0.6,0.6,0.6,1.6,0,2.5c-0.6,0.8-3.4,3.8-4.8,4.1c-1.4,0.3-2.5,0-1.4-1
		C102,88.7,104.9,85.5,105.2,84.4"/>
	<path class="st1" d="M106.8,88.1c0.3-1.1,0.4-1.3,1.3-1c1,0.2,1.9,0.6,1.4,1.5c-0.4,0.9-1.2,2.6-1.5,2.9c-0.3,0.3-0.3,1,0.3,1
		c0.6,0,0.9-0.3,0.8-0.9c-0.1-0.6-0.3-1.1,0.2-1.4c0.4-0.3,1.3-0.1,1.6,0.4c0.3,0.4,1.5,1.2,1.9,1.8c0.5,0.6,0.6,1.9,0.3,3.2
		c-0.3,1.3-0.6,1.3-1.6,0.7c-1.1-0.6-1.1-0.6-1.3-1c-0.2-0.3-0.8-0.3-1.3,0c-0.4,0.3-0.9,0.5-1.3,0.4c-0.4,0-1.2,0.7-1.4,1.1
		c-0.2,0.3-1,0.5-1.9-0.1c-0.9-0.6-1.2-1.1-1.3-1.8c0-0.7,0-1.3,0.6-1.6c0.7-0.2,1.3-0.9,1.9-2.3C106.4,89.6,106.6,89.2,106.8,88.1"
		/>
	<path class="st1" d="M66.7,83.4c0.1,0,0.2,0,0.3,0c0.8,0,2.6,0,2.8-0.2c0.2-0.2,0.7-0.3,1.2,0c0.5,0.3,1.4,0.7,1.8,1
		c0.3,0.2,0.8,0.6,0.5,1.1c-0.3,0.4-0.6,0.6-1.1,0.6c-0.5-0.1-0.9,0.7-1.3,1.4c-0.5,0.6-1.6,2.2-1.7,2.3C69,89.6,68.6,90,67.8,90
		c-0.3,0-0.7,0-1.1,0.2v-2.6c0.1,0,0.2-0.1,0.3-0.1c0.4-0.3,0.5-1,0.6-1.6c0.1-0.5-0.3-0.6-0.9-0.6V83.4z M62.9,80.4
		c0,0,0.1-0.6,0.3-1c0.2-0.3,0.9-0.6,1.3-0.4c0.5,0.2,1.8,0.5,1.9,1c0.1,0.6-0.1,2.3-0.1,2.6c0.1,0.3,0,0.6,0.4,0.7v1.8h-0.2
		c-0.7,0.1-0.6,0.6-0.6,0.6s-0.2,1.2-0.1,1.6c0.1,0.3,0.5,0.3,0.9,0.2v2.6c-0.5,0.2-0.9,0.5-1,1c0,0.9-0.4,4.4-0.4,5.2
		c0,0.7-0.3,2.5-0.6,2.7c-0.4,0.3-1.2,0.1-1.5-0.6c-0.3-0.8-0.3-1.9-0.3-3.4c-0.1-1.6,0.2-2.9,0.2-2.9s-0.4-0.6-0.7-0.4
		c-0.1,0-0.2,0.1-0.3,0.2v-2.7c0.3-0.1,0.6-0.3,0.8-0.5c0.3-0.4,0.4-1.3,0.3-2c0-0.6-0.6-0.8-1.2-0.4v-2.1c0.6-0.2,1.3-0.2,1.2-1.4
		C63.1,81.6,62.8,80.5,62.9,80.4 M62.1,91.9c-0.6,0.2-1.8,0.5-2.3-0.1c-0.7-0.8-1.1-0.4-1-1.2c0.1-0.8,0-2.3-0.3-3
		c-0.3-0.4-0.5-0.8-0.5-1.2v0c0-0.3,0.2-0.5,0.6-0.7c1-0.3,2.8-1.1,3.5-1.3c0,0,0.1,0,0.1,0v2.1c-0.1,0.1-0.6,0.4-1,0.6
		c-0.5,0.3-0.1,1.1-0.1,1.6c0,0.5,0.2,0.8,0.5,0.7c0.1,0,0.3,0,0.6-0.1V91.9z"/>
	<path class="st1" d="M75.5,62.9c-0.3-0.2,0.1-0.5,0.5-0.4c0.4,0,0.7,0.3,0.9,0.5c0.2,0.3,0.6,0.6,0.9,0.7c0.3,0.2,0.5,0.5,0.2,0.7
		c-0.4,0.3-0.6,0.2-0.6,0.2s-0.4,0.1-0.1,0.6c0.3,0.5,0.5,0.6,0.6,0.9c0.1,0.2,0,0.6-0.3,0.7c-0.2,0.1-0.3,0.2-0.3,0.5
		c0,0.3,0.3,0.6,0,0.8c-0.2,0.1-0.8,0-0.3,0.5c0.4,0.6,0.6,1,0.4,1.2C77.3,70,77,70.3,77,70.3s-0.3,0.3,0.1,0.6
		c0.4,0.3,0.6,0.3,0.9,0.1c0.2-0.2,0.4-1,0.3-1.9c0-1-0.2-1.2-0.2-1.4c0-0.3-0.3-0.5,0-0.7c0.3-0.3,1.3-0.9,1.8-1.7
		c0.6-0.9,0.9-1.3,1-1.8c0.1-0.5,0.4-0.5,0.8-0.2c0.5,0.3,0.8,0.4,0.3,1.2c-0.5,0.8-1.9,1.9-2.3,2.2c-0.4,0.3-0.6,0.7-0.3,0.9
		c0.3,0.2,0.5,0.3,0.8-0.1c0.3-0.3,0.4-0.6,0.7-0.6h0.7c0.4,0,1-0.2,1.3-0.1c0.3,0,1.1,0.2,0.6,0.6c-0.5,0.3-1.3,0.5-1.5,0.5
		s-0.4,0.5-0.4,1c0,0.5,0.2,4.7,0,5.5c-0.2,0.8-0.5,0.9-0.8,0.3c-0.3-0.6-0.4-1.3-0.3-1.9c0-0.6,0-2.3-0.1-3c0-0.6-0.6-1-0.9-0.2
		c-0.3,0.8-0.2,1.6-0.3,2c-0.1,0.5-0.6,1.6-0.9,1.9c-0.2,0.3-0.6,0.6-0.7,0.1c-0.1-0.5-0.2-0.9-0.2-1c0-0.1-0.3-0.3-0.6,0
		c-0.3,0.3-0.4,0.7-0.3,1c0.1,0.4-0.3,0.6-0.7,0.6c-0.4,0-0.8-0.4-0.9-0.5c-0.1-0.1-0.1-0.2-0.3-0.2v-1.1h0.1c0.3,0,0.3-0.4,0.3-0.8
		c0-0.3-0.3-0.4-0.4-0.2v-4.1c0,0,0.1,0.1,0.3,0.2c0.5,0.2,0.3,0,0.6-0.3c0.3-0.3,0.7-0.7,0.9-1.2c0.1-0.6,0-0.7-0.7-0.6
		c-0.4,0.1-0.8,0.2-1.1,0.2v-1c0.1,0,0.2,0,0.3,0c0.2,0,0.6-0.4,0.6-0.9C75.7,63.1,75.8,63.1,75.5,62.9 M74.8,66.5v0.3
		c0-0.1,0-0.1,0-0.2C74.8,66.6,74.8,66.6,74.8,66.5 M74.8,73.3c-0.1,0-0.2,0-0.3,0.2c-0.4,0.3-1,0.3-1.1,0.1
		c-0.2-0.3-0.2-0.3-0.2-0.9c0-0.6-0.1-0.4-0.6-0.3c-0.5,0.1-0.7,0.1-1-0.2c-0.2-0.3,0.1-0.3,0.6-0.7c0.5-0.3,1-0.6,1.6-0.8
		c0.6-0.3,1-0.4,1-0.7c0-0.3-0.3-0.4-0.7-0.5c-0.4-0.1-0.4-0.3,0-0.7c0.4-0.4,0.8-0.3,0.5-0.8c-0.3-0.5-0.8-0.5-0.8-1
		c0-0.4,0.2-0.6,0.4-0.6c0.2,0,0.5,0.1,0.6,0.3v0.3c0,0.1,0,0.2,0,0.3v4.1c0,0,0,0.1-0.1,0.2c-0.1,0.5,0.1,0.3-0.3,0.6
		c-0.3,0.2,0.1,0.2,0.3,0.2V73.3z M74.8,65.4c-0.3,0-0.5,0-0.7-0.1c-0.4-0.2-0.3-0.4,0.1-0.7c0.3-0.2,0.4-0.2,0.6-0.2V65.4z"/>
	<path class="st1" d="M89.6,79.7c0.1-0.1,0.2-0.3,0.3-0.5c0.2-0.7,0.2-1,0.2-1.1c0-0.2,0.4-0.4,1-0.3c0.5,0.2,0.6,0.1,0.7,0.7
		c0,0.6,0.3,1,0.6,1.3c0.4,0.3,0.7,0.8,0.3,1c-0.3,0.3-0.6,0.2-1,0.3c-0.4,0.1-1.2,0.4-0.7,0.9c0.4,0.5,1.1,0.6,1.1,0.6
		s0.3,0.3,0.3,0.6c0,0.3-0.6,0.5-0.6,0.5s-0.7,0.9,0.2,1.2c0.9,0.3,1.3,0.3,1.8,0.7c0.4,0.5,0.2,0.8-0.8,1.1c-1,0.2-1.4,0.5-0.6,0.9
		c0.8,0.4,2.2,0.1,2.8,0.1c0.5,0,1.2,0.7,1.2,1.3V89v0.1c-0.1,0.6-0.7,0.9-1.3,0.6c-0.7-0.2-1.6-0.5-2.9-0.4c-1.2,0.1-1.9,0-1.9,0
		s-1,0.8,0.1,0.8c1.1,0,2-0.1,2.7,0.3c0.7,0.4,1.1,0.8,0.9,1.4c-0.1,0.6-0.8,1-1.6,0.7c-0.8-0.2-1.6-0.4-1.8-0.5
		c-0.1-0.1-0.7,0-1,0.2V88c0.2,0,0.3,0,0.4-0.1c0-0.2-0.1-0.4-0.4-0.4V85h0.3c0.4,0,0.4-0.4,0.4-0.4s-0.4-0.4-0.7-0.4v-1.1
		c0.1,0,0.2-0.1,0.3-0.3c0.2-0.4,0.2-0.4-0.3-0.2V79.7z M87.9,80.2c0.6,0,1.2,0,1.2,0s0.3-0.2,0.5-0.5v2.9c-0.6,0.2-0.6,0.3-0.2,0.4
		c0.1,0,0.2,0.1,0.2,0.1v1.1h0c-0.3,0-0.4,0.1-0.3,0.5c0,0.3,0.2,0.3,0.4,0.3v2.4c0,0-0.1,0-0.2,0C89,87.7,89.4,88,89.4,88
		s0.1,0,0.3,0v4.2c-0.2,0.1-0.3,0.4-0.4,0.6c-0.2,0.8,0.2,3.7,0,4.3c-0.2,0.6-0.5,1.6-1.1,1.5c-0.1,0-0.2-0.1-0.3-0.1V82.8
		c0.2,0,0.3-0.3,0.5-0.6c0.2-0.3-0.2-0.6-0.5-0.6V80.2z M86.5,78.8c0,0,0,0.1,0,0.1c0.4,0.6,0.6,1.3,1.2,1.3h0.1v1.5
		c-0.1,0-0.2,0-0.2,0.1c-0.3,0.3-0.4,0.2-0.3,0.5c0,0.3-0.1,0.3,0.3,0.6c0.1,0,0.1,0,0.2,0v15.6c-0.4-0.1-0.5-0.4-0.6-1
		c-0.1-0.8-0.3-2.7-0.3-3.2c0-0.3-0.1-0.5-0.3-0.6v-2.7c0.1-0.2,0.1-0.3,0-0.3v-2.3c0.1,0,0.2-0.1,0.2-0.1c0-0.1,0-0.3-0.2-0.3v-2
		c0.3,0,0.3-0.3,0.5-0.5c0.1-0.1-0.2-0.3-0.5-0.4V78.8z M84.1,79.5c-0.1-0.3-0.2-0.5,0.4-0.9c0.6-0.4,1.1-0.4,1.1-0.4s0.6,0.1,1,0.6
		V85h-0.2c-0.3,0-0.6,0.5,0,0.8c0.1,0,0.1,0.1,0.2,0.1v2c-0.1,0-0.2,0-0.3,0c-0.4,0.2-0.1,0.5-0.1,0.5s0.2,0,0.4,0v2.3
		c-0.1,0-0.3,0-0.5,0.2c-1,0.5-2.3,1.3-3.2,1.7c-1,0.4-2.3,0.4-2.7,0c-0.3-0.3-0.6-0.7-0.6-1.1c0-0.3,0.2-0.6,0.7-0.6
		c1.1-0.1,1.4,0,2.4-0.5c1.1-0.4,1.3-0.7,1.3-0.7s0-0.6-1-0.6c-1,0.1-1.1-0.2-1.2-0.5c-0.1-0.3,0-0.4,0.9-0.8
		c0.9-0.3,1.1-0.5,1.2-1.2c0.1-0.7,0-0.6-0.4-1c-0.4-0.4-0.9-0.7-0.2-1.1c0.3-0.1,0.5-0.3,0.7-0.3c0.3-0.2,1,0.2,1.3,0
		c0,0,1.2-0.4-0.2-0.9c-1.3-0.5-1.7-0.2-2.1-0.7c-0.4-0.5,0-0.5,0.6-0.7c0.6-0.3,1.1-0.6,1-1.4C84.5,79.8,84.1,79.5,84.1,79.5
		 M86.5,93.6v-2.7c-0.1,0.2-0.4,0.5-0.7,0.7c-0.7,0.6-2.2,1.1-2.7,1.6c-0.5,0.4-0.6,1.1,0.4,1.3c1,0.3,1.8,0,2.4-0.6
		C86.2,93.7,86.4,93.6,86.5,93.6"/>
	<path class="st1" d="M133.3,80c0.3,0.3,0.6,0.5,1,0.9c1.3,1.1,4.8,3.5,6.5,4.2c1,0.4,1.3,0.7,1.4,1v0.1c0,0.2-0.2,0.3-0.6,0.5
		c-0.7,0.3-1.5,1.1-1.9,1.1c-0.5,0-1.3-0.4-1.9-1c-0.7-0.6-0.8-0.8-1.2,0c-0.4,0.8-1,2.2-1.6,2.6c-0.3,0.2-1,0.5-1.6,0.7v-2.2
		c0.2-0.3,0.4-0.9,0.4-1.5c0-0.4-0.2-0.5-0.4-0.5v-1.7c0.1,0,0.2,0,0.3-0.1c0.5-0.2,0.8-0.1,0.7-0.5c-0.1-0.3-0.6-0.4-0.9-0.2
		c0,0-0.1,0-0.1,0V80z M133.3,90.7c0.6-0.1,1.2-0.1,1.5,0.1c0.5,0.3,1,1,0.8,1.4c-0.3,0.4-0.4,0.8-0.3,1.6c0.1,0.8,0,3-0.3,3.6
		c-0.4,0.6-0.3,1.4-0.9,1.6c-0.2,0.1-0.5,0.1-0.7,0V90.7z M133.3,87.5L133.3,87.5L133.3,87.5z M131.6,78.3c0.2,0.1,0.4,0.2,0.5,0.4
		c0.2,0.3,0.6,0.8,1.3,1.4v3.4c-0.3,0.2-0.2,0.4-0.7,0.5c-0.6,0.1,0,0.4,0,0.4s0.3,0,0.7-0.1v1.7c-0.1,0-0.2,0-0.3,0.1
		c-0.4,0.1-0.7,0.2-0.2,0.5c0.5,0.3,0.1,0.2,0.4,0.6c0.1,0.1,0.1,0.2,0.1,0.3v0.1c0,0.2-0.3,0.3-0.4,0.5c-0.2,0.1-0.3,0.2-0.1,0.3
		c0.2,0.1,0.2,0,0.5-0.3l0,0v2.2c-0.5,0.2-0.9,0.3-1.2,0.3c-0.2,0-0.4,0.1-0.6,0.3v-8.8c0.1,0,0.3,0,0.5,0c0.7,0,0.6-0.6,0.1-1
		c-0.3-0.2-0.5-0.3-0.6-0.4V78.3z M131.6,91v1.8c0.1,0,0.1-0.1,0.3-0.2c0.2-0.2,0.6,0.2,0.6,0.5c0,0.3-0.3,0.3-0.8,0.2h-0.1v2.1
		c0.2-0.1,0.4-0.3,0.6-0.5c0.4-0.5,0.5-0.1,0.6,0.5c0,0.6-0.2,0.7-0.8,0.7c-0.1,0-0.2,0-0.3,0v1.9c0.2,0,0.3,0.1,0.5,0.3
		c0.3,0.3,0.7,0.6,1.2,0.8v-8.4c-0.5,0-1,0.1-1.5,0.3C131.7,91,131.6,91,131.6,91 M129.3,79c0-0.7,0.4-0.7,1-0.8
		c0.3-0.1,0.9-0.1,1.3,0v2.3c-0.2,0-0.3,0.1-0.4,0.3c0,0-0.2,0.4-0.4,0.6c-0.3,0.2-0.3,0.5,0,0.4c0.2,0,0.4-0.1,0.8-0.1v8.8
		c-0.3,0.2-0.5,0.3,0,0.3v1.8c-0.1,0-0.3,0.1-0.5,0.1c-0.7,0.2-0.3,0.5-0.3,0.5s0.4-0.1,0.9-0.1v2.1c-0.3,0.1-0.6,0.2-1,0.2
		c-0.9,0.1-0.7,0.8-0.2,0.8c0.4,0,0.7-0.2,1.2-0.3v1.9c-0.3,0-0.5,0.1-0.7,0.3c-0.4,0.3-1.5,0.5-2,0v-9.4c0.2,0.3,0.4,0.5,0.8,0.7
		c0.6,0.2,0.2-0.7-0.1-0.8c-0.3-0.1-0.4-0.2-0.6-0.5c0,0,0,0,0-0.1v-0.2c0.1-0.2,0.3-0.3,0.5-0.5c0.3-0.2-0.1-0.4-0.5-0.3v-1.5
		c0.4-0.2,0.7-0.5,1-0.9c0.4-0.4-0.4-0.7-1-0.2v-3.5c0-0.1,0.1-0.2,0.2-0.3C129.5,80.2,129.3,79.7,129.3,79 M128.8,98.3L128.8,98.3
		c-0.6-0.5-0.8-0.8-0.7-1.9c0-1.1,0-1.8-0.1-2.7c-0.1-1-0.2-1.3,0.3-1.6c0.5-0.2,0.7,0.2,0.1-0.4c-0.6-0.7-1.3-1.4-1.8-2
		c-0.5-0.6-0.6-0.5-0.6-1.1c0.1-0.6-0.5-0.6-1.1,0c-0.6,0.7-1.9,1-2.1,0.9c-0.2-0.1-0.2-1,0.4-1.6c0.6-0.7,2.2-2,3.6-3.9
		c1.2-1.6,1.5-2.2,1.9-2.8v3.5c0,0,0,0,0,0c0,0-0.4,0.4-0.9,0.9c-0.5,0.5,0,0.6,0.5,0.3c0.2-0.1,0.3-0.1,0.4-0.2v1.5
		c-0.1,0-0.3,0.1-0.4,0.1c-0.5,0.3-0.5,0.6,0,1.1c0.2,0.2,0.3,0.3,0.4,0.5V98.3z M128.8,88.1c0,0,0,0.1,0,0.2V88.1z"/>
	<path class="st2" d="M67.5,54.4c-12.4,6.6-22.3,16.8-27.6,29c-11.7,26.5-5.2,55.1,22.7,68.9c0.2,0.1,0.4,0.2,0.6,0.3
		c-0.1,0.6-0.2,1.2-0.2,1.8c0,4.9,4,8.9,8.9,8.9c2.5,0,4.8-1,6.4-2.7c1.6,2.6,4.4,4.5,7.7,4.5c2.6,0,5.1-1.2,6.7-3.1
		c1.6,2.3,4.3,3.8,7.3,3.8c3,0,5.7-1.5,7.3-3.8l0.1,0.1l0.3,0.3l0.3,0.3l0.3,0.3l0.3,0.3l0.3,0.2l0.3,0.3l0.4,0.2l0.4,0.2l0.4,0.2
		l0.4,0.2l0.4,0.1l0.4,0.1l0.4,0.1l0.4,0l0.5,0.1h0.4l0.5,0l0.4,0h0.5l0.4-0.1l0.4,0l0.4-0.1l0.4-0.1l0.4-0.1l0.4-0.2l0.4-0.2
		l0.4-0.2l0.3-0.2l0.4-0.3l0.3-0.2l0.3-0.3l0.3-0.3l0.3-0.3l0.3-0.3l0.3-0.3l0.3-0.3l0.2-0.3l0.3-0.3l0.1-0.2l0.1,0.1l0.3,0.3
		l0.3,0.3l0.3,0.3l0.3,0.3l0.4,0.2l0.3,0.2l0.4,0.2l0.4,0.2l0.4,0.2l0.4,0.1l0.4,0.1l0.4,0.1l0.4,0.1l0.4,0l0.5,0h0.4h0.5l0.4,0
		l0.5,0l0.4-0.1l0.4-0.1l0.4-0.1l0.4-0.1l0.4-0.2l0.4-0.2l0.3-0.2l0.4-0.2l0.3-0.2l0.3-0.3l0.3-0.3l0.3-0.3l0.3-0.3l0.3-0.3l0.3-0.3
		l0.3-0.3l0.3-0.4l0.2-0.3l0.2-0.4l0.2-0.4l0.2-0.4l0.2-0.4l0.1-0.4l0.1-0.4l0.1-0.4l0.1-0.4l0-0.5l0-0.4v-0.5v-0.4l0-0.5l0-0.4
		l-0.1-0.4v0c0.2-0.1,0.4-0.2,0.6-0.3c27.9-13.7,34.3-42.3,22.7-68.9c-5.4-12.2-15.2-22.4-27.6-29c-5.3-2.5-5.3-6.2-3.6-8.4
		c2.3-3.1,5.6-2.7,9.2-0.6c23.1,13.4,38.7,38.6,38.7,67.3c0,42.2-33.7,76.7-75.3,77.5c-1,0-2,0-3,0c-41.6-0.7-75.3-35.2-75.3-77.5
		c0-28.8,15.6-54,38.7-67.3c3.6-2.1,6.8-2.5,9.2,0.6C72.9,48.2,72.9,51.8,67.5,54.4"/>
</g>
<g>
	<path class="st3" d="M213,155.1V150c-1.1,0-2.2,0.1-3.2,0.3l-0.7-1.1v0.7c0,9.2-2.6,16-8,20.4c-0.9,0.5-1.3,0.3-1.1-0.4
		c1-2.4,1.8-4.9,2.4-7.7c0.6-2.8,0.9-6.3,1-10.5v-6.5c0-1.5,0-2.7-0.1-3.5c0-0.8-0.1-1.7-0.2-2.9c-0.1-0.7,0.3-1,1.1-1
		c0.9,0.1,1.9,0.4,3.1,0.8c1.2,0.4,2.1,0.8,2.9,1.3h8.2c-0.4-0.4-0.7-1-0.8-1.8c-0.4-1.2-1-2.3-1.8-3.3c-0.6-0.8-0.4-1.2,0.4-1.2
		c3.7,0.1,5.9,1,6.5,2.9c0.1,0.4,0,1-0.1,1.7c-0.1,0.7-0.6,1.3-1.2,1.8h6.4c0.6-1.1,1.3-2.1,2-3.1c0.3-0.6,1-0.7,1.9-0.2
		c1.7,1,2.9,2,3.7,2.9c0.6,1,0.4,1.6-0.4,1.6h-25c-0.5,0.1-0.7,0.5-0.7,1.2v6.2c1,0.1,2.3,0.2,3.9,0.3v-2c0-0.7,0-2-0.1-3.7
		c-0.1-0.8,0.2-1.2,1-1.2c1.8,0.1,3.3,0.3,4.5,0.4c0.7,0.1,1.2,0.4,1.2,0.7c0.1,0.4,0,0.6-0.3,0.8l-0.7,0.5v4.4h4.8v-2.1
		c0-0.7,0-2-0.1-3.9c-0.2-0.7,0.2-1.1,1.1-1c1.8,0.1,3.3,0.3,4.3,0.4c1.3,0.4,1.6,0.9,0.9,1.6l-0.7,0.5v4.5h0.3
		c0.6-1,1.2-1.9,1.6-2.4c0.6-0.7,1.3-0.8,2-0.3c0.9,0.5,1.9,1.3,3,2.6c0.4,0.8,0.2,1.2-0.6,1.3h-6.4v3.2c0,0.8,0,2.4,0.1,4.8
		c-0.1,1.4-1.7,2.1-4.7,2.1c-0.5,0-0.8-0.2-0.9-0.7v-1.9h-4.8v0.8c-0.2,1.4-1.7,2.2-4.4,2.2c-0.9,0-1.3-0.4-1.3-1
		C212.9,157.9,213,156.4,213,155.1z M206.7,165.2c0.6-0.3,1.3-0.6,1.9-1.1c0.7-0.4,1.3-1.3,2.1-2.7c0.4-0.6,0.8-0.6,1.1,0.1
		c0.8,2.3,0.6,4.5-0.7,6.6c-1.3,1.6-2.8,2.1-4.5,1.5c-0.9-0.5-1.4-1.2-1.5-2.2C205.1,166.6,205.6,165.8,206.7,165.2z M214.5,167.1
		c0.2-1.9,0-3.4-0.6-4.6c-0.4-0.9-0.1-1.2,0.8-1c3.5,1.4,5.1,3.3,5,5.6c-0.1,0.8-0.6,1.5-1.3,2c-0.7,0.5-1.5,0.7-2.3,0.6
		C215.2,169.8,214.6,168.9,214.5,167.1z M218.5,150v6.3h4.8V150H218.5z M222.2,167.1c-0.1-1.8-0.5-3.3-1.3-4.5
		c-0.5-0.9-0.3-1.3,0.7-1.2c1.8,0.3,3.2,1,4.3,1.9c1.1,0.9,1.7,1.9,1.7,3c0,0.9-0.3,1.7-1,2.3c-0.7,0.6-1.5,0.9-2.4,0.9
		c-0.3,0-0.7-0.2-1.1-0.5C222.6,168.7,222.3,168.1,222.2,167.1z M229.9,167c-0.1-1.9-0.5-3.5-1.3-4.8c-0.5-0.8-0.2-1.2,0.9-1.1
		c1.7,0.4,3.1,1.2,4.3,2.2c1.2,1,1.8,2,1.8,3.2c0,0.9-0.3,1.7-1,2.3s-1.5,1-2.5,1c-0.5,0-0.9-0.2-1.4-0.6
		C230.1,168.8,229.9,168,229.9,167z"/>
	<path class="st3" d="M261.5,157.4h-5.3c-0.3,7.1-5.6,11.4-16,13.1c-0.3,0-0.6,0-0.7-0.3c0-0.2,0-0.5,0.3-0.7
		c6.2-2.6,9.8-6.6,10.7-12.1h-1.6c-1.1,0-2.6,0-4.6,0.3l-1.2-1.8c2.1,0.2,4.2,0.3,6.4,0.3h1.2v-2.7c0-0.4,0-0.8,0-1
		c-3.3,1.2-7.1,2-11.4,2.4c-0.8,0-1.2,0-1.2-0.3c0-0.3,0.3-0.6,0.9-0.9c5.3-1.7,10-4,14.1-7c-0.8-1.2-1.7-2.6-2.5-4.3
		c-2.6,2.7-5.6,4.8-8.8,6.2c-1,0.2-1.1-0.1-0.5-0.9c3.6-4,5.9-8.3,6.8-13.1c0.1-0.6,0.6-0.9,1.3-0.7c2.4,0.2,4.4,0.4,5.9,0.8
		c0.3,0.1,0.4,0.4,0.4,0.7c0,0.3-0.1,0.6-0.5,0.8l-0.9,0.3c-0.4,0.8-0.8,1.5-1.1,1.9h6.7c0.6-0.8,1.3-1.5,2-2.2
		c0.5-0.2,0.9-0.2,1.4,0c1.7,1.1,3.3,2.3,4.7,3.5c0.3,0.4,0.1,0.8-0.4,1.1l-1.3,0.4c-1.7,2.1-3.5,4.1-5.6,5.9
		c3.7,1.3,7.9,1.9,12.5,1.8c0.6,0,0.9,0.1,0.9,0.4c0.1,0.3-0.1,0.6-0.6,1c-1.3,0.8-2.3,2.1-2.8,3.9c-0.1,0.3-0.6,0.5-1.5,0.6
		c-5.3-0.5-9.6-2.1-12.9-4.8c-0.4,0.3-1.2,0.7-2.4,1.3c-0.4,0.1-0.8,0.3-1,0.4c1.3,0.1,2.7,0.2,4,0.5c0.6,0.3,0.7,0.8,0.3,1.3
		l-0.7,0.5v0.8c0,0.2,0,0.7,0,1.4h4.6l1-1.9c0.3-0.3,0.9-0.3,1.7,0c1.6,0.5,3,1.2,4.2,1.9c0.5,0.4,0.6,0.9,0.3,1.4l-0.7,1
		c-0.1,1.8-0.3,3.3-0.4,4.5c-0.1,1.2-0.4,2.4-0.7,3.5c-0.2,0.9-0.8,1.7-1.7,2.3c-0.9,0.6-2.6,1-5.1,1.3c-0.8,0-1.2-0.2-1.3-0.8
		c-0.5-1.3-1.4-2.2-2.8-2.9c-0.7-0.5-0.6-0.9,0.2-1.1c3.3,0,5-0.5,5.3-1.6C261.2,161.8,261.5,159.7,261.5,157.4z M259.9,139.4h-7.3
		c-0.4,0.6-0.8,1.3-1.3,1.9c1.3,1.2,2.7,2.2,4.2,3.1C257.2,142.9,258.7,141.2,259.9,139.4z"/>
	<path class="st3" d="M291.1,159.1v-8.6c-1.1,1.2-2.2,2.1-3.2,2.9c-0.9,0.6-1.2,0.4-0.9-0.7c1.4-2.9,2.6-5.8,3.6-8.5l-0.4,0.1
		c-2.3,4.5-4.9,8-7.6,10.8c2.1-0.1,4.2-0.2,6.3-0.4c1.7,0.1,1.8,0.5,0.5,1.4c-4.5,1.5-7.5,2.8-9.1,3.9c-0.8,0.6-1.4,0.6-1.9,0
		c-0.8-1.4-1.4-2.6-1.9-3.8c-0.2-0.7,0.1-1.2,0.9-1.5c0.6-0.2,1.2-0.4,1.6-0.7c1.1-0.8,2.3-2.4,3.5-4.8c-1.3,0.4-2.4,1-3.1,1.6
		c-0.7,0.6-1.4,0.7-1.9,0.1c-0.3-0.4-0.6-0.9-1-1.6c-0.3-0.7-0.6-1.2-0.7-1.6c-0.3-0.8-0.1-1.4,0.4-1.6c1.4-0.5,2.3-1.4,2.8-2.6
		c0.4-1,0.8-2.3,1.2-3.8c0.3-1.5,0.7-3,0.9-4.3c0.2-0.7,0.6-0.9,1.3-0.8c2,0.5,3.7,1.1,5.1,1.9c0.8,0.6,0.7,1.1-0.1,1.6l-1.1,0.4
		c-1.7,2.8-3.6,5.4-5.7,7.7c0.9,0,1.9,0,3-0.1c0.7-1.3,1.3-3,1.8-4.9c0.2-0.8,0.9-0.9,2-0.5c1.3,0.4,2.5,1,3.6,1.8
		c0.9-2.5,1.5-5,1.9-7.4c0.1-0.9,0.7-1.3,1.7-1c0.5,0.1,1.2,0.3,2.2,0.6c0.9,0.2,1.8,0.6,2.7,0.9c0.8,0.5,0.8,1-0.1,1.6l-1,0.5
		c-0.9,2.1-1.6,3.8-2.1,4.9c0.5,0.1,0.9,0.2,1.4,0.2h7.9c0.5-1,1-1.8,1.5-2.4c0.5-0.6,1.1-0.6,1.9-0.1c0.5,0.3,1.1,0.7,1.7,1.2
		c0.6,0.5,1.1,1,1.4,1.4c0.4,0.7,0.3,1.1-0.4,1.2h-7v6.2h0.9c0.5-1,1.1-1.8,1.6-2.4c0.4-0.3,0.9-0.3,1.4,0c1.2,0.9,2.1,1.7,2.7,2.3
		c0.7,0.8,0.5,1.3-0.4,1.3h-6.2v6.5h0.9c0.6-1.1,1.1-1.9,1.6-2.4c0.4-0.4,0.9-0.4,1.7,0c1.1,0.8,2,1.6,2.7,2.4
		c0.4,0.7,0.3,1.1-0.4,1.2h-6.4v6.8h1.3c0.6-1.1,1.1-2,1.7-2.8c0.4-0.3,0.9-0.4,1.5-0.1c0.6,0.4,1.3,0.9,1.9,1.5
		c0.6,0.6,1.1,1.1,1.4,1.4c0.4,0.6,0.3,1-0.4,1.1h-15.6v1.5c-0.1,0.7-0.6,1.3-1.5,1.6c-0.9,0.3-1.7,0.4-2.5,0.4
		c-1.5,0.1-2.1-0.6-1.9-2.3C291,164.3,291.1,161.4,291.1,159.1z M277.2,162.8c3.2-0.6,7.3-1.6,12.5-2.9c1.2,0,1.2,0.4,0.1,1.5
		c-1.8,1-3.7,2.1-5.8,3.2s-3.4,1.9-4,2.4c-1,1-1.7,1.1-2.1,0.4c-0.8-1.2-1.3-2.4-1.7-3.6C276,163.4,276.3,163.1,277.2,162.8z
		 M296.6,143.7v6.2h2.7v-6.2H296.6z M296.6,151.2v6.5h2.7v-6.5H296.6z M296.6,158.8v6.8h2.7v-6.8H296.6z M304.2,142.1
		c-0.9,0.3-1.6,0.2-2.2-0.2c-0.6-0.4-0.8-1-0.8-1.9c0-1.1-0.3-2.1-0.8-2.8c-0.5-0.8-0.2-1.2,0.7-1c2,0.4,3.4,1.1,4.3,2.2
		c0.4,0.7,0.4,1.4,0.1,2.2C305.3,141.3,304.8,141.8,304.2,142.1z"/>
	<path class="st3" d="M329.6,144.3h-5v5.6c1.5-0.4,3.1-0.9,4.6-1.3c0.6-0.1,0.9,0,1,0.3s-0.1,0.6-0.4,0.9c-2.1,1.3-3.8,2.4-5.1,3.2
		c0,3.2,0,7.4,0.3,12.6c0,1.5-0.4,2.6-1.2,3.4c-0.8,0.7-1.9,1.2-3.3,1.5c-1.1,0.3-1.8,0-2.2-1c-0.4-1.2-1.7-2.4-4-3.3
		c-0.5-0.2-0.7-0.5-0.6-0.8c0.1-0.3,0.3-0.4,0.6-0.4c1.8,0.2,3,0.2,3.7,0s1-0.9,1-1.9V156c-0.5,0.4-1,0.8-1.4,1.3
		c-1.2,1.2-1.9,1.3-2.2,0.1c-0.6-1.3-1.1-2.7-1.6-4.2c-0.3-0.7,0-1.1,0.8-1.3c1.1-0.1,2.6-0.4,4.5-0.8v-6.9h-1.9
		c-0.8,0-1.6,0-2.4,0.1l-1-1.6c1.3,0.2,2.6,0.3,4,0.3h1.3V141c0-2-0.1-4-0.3-5.9c-0.2-1,0.2-1.4,1-1.3c0.7,0,1.5,0.1,2.5,0.2
		c1,0.1,1.9,0.3,2.8,0.5c1.2,0.4,1.4,1,0.4,1.8l-0.9,0.4v5.8c0.3-0.5,0.9-1.1,1.6-1.9c0.2-0.1,0.5-0.1,0.8,0
		c0.5,0.1,1.4,0.9,2.8,2.4C330.4,143.8,330.3,144.2,329.6,144.3z M330.5,152.1v-3.7c0-2.5-0.1-5.1-0.4-7.6c-0.2-1,0.2-1.5,1.2-1.3
		c1.9,0.3,3.8,1,5.8,1.9h6l1.3-2c0.3-0.3,0.7-0.4,1.2-0.3c0.7,0.1,2.2,1,4.7,2.4c0.5,0.4,0.5,0.9,0.1,1.4l-0.9,1v2.7
		c0,2.1,0.1,4.2,0.3,6.5c0,0.8-0.4,1.4-1.3,1.8c-0.9,0.4-1.9,0.6-3.1,0.6c-1,0-1.5-0.3-1.5-1v-1.6h-7.8c-0.2,8.3-4,13.9-11.4,16.9
		c-1.1,0.2-1.4,0-0.9-0.7C328.3,165.1,330.5,159.5,330.5,152.1z M336.1,133.8c3.4,0.1,5.6,0.8,6.6,2.3c0.7,1.3,0.8,2.5,0.2,3.4
		c-0.5,0.9-1.5,1.5-2.7,1.7c-0.9,0.3-1.6-0.3-2.2-1.8c-0.2-0.9-0.5-1.7-0.8-2.4c-0.3-0.7-0.9-1.5-1.7-2.4
		C335.2,134.2,335.4,134,336.1,133.8z M343.9,142.6h-7.2c-0.3,0.3-0.5,0.6-0.6,1v8.1h7.8V142.6z"/>
	<path class="st3" d="M361.6,138.8h2.8c0.5-0.9,1.1-1.7,1.8-2.6c0.4-0.3,0.9-0.3,1.3-0.1c1.1,0.7,2.2,1.6,3.3,2.7
		c0.5,0.7,0.3,1-0.4,1.1H362c2.6,0.5,4.1,1.6,4.6,3.3c0.4,2.1-0.4,3.4-2.3,3.8c-1.7,0.2-2.7-0.4-2.9-2c0-2.4-0.4-3.9-1-4.5
		c-0.7,1-1.7,2.4-3.2,4c-1.4,1.7-2.9,3-4.3,4c-0.9,0.5-1.2,0.2-0.8-0.9c0.8-1.4,1.8-3.4,2.9-6.1c1.1-2.6,1.8-5,2.2-7
		c0-0.6,0.5-0.9,1.4-0.8c0.6,0.1,1.4,0.3,2.4,0.5c1,0.2,1.9,0.5,2.7,0.7c0.5,0.2,0.7,0.5,0.7,0.9c-0.1,0.4-0.2,0.6-0.5,0.7l-0.8,0.3
		C362.4,137.9,361.9,138.5,361.6,138.8z M368.1,142.4c0.7,0,1.5,0.1,2.2,0.4c1.2-2.3,2.3-5.1,3.1-8.2c0.1-0.6,0.5-0.9,1.2-0.8
		c1.6,0.3,3.3,0.7,4.9,1.2c0.5,0.2,0.7,0.5,0.6,0.9c-0.1,0.4-0.3,0.6-0.6,0.7l-0.8,0.2c-0.5,0.6-1,1.2-1.5,1.8h4.2
		c0.5-0.9,1.1-1.7,1.8-2.6c0.4-0.3,0.9-0.3,1.3-0.1c1.1,0.7,2.2,1.6,3.3,2.7c0.4,0.6,0.3,1-0.4,1.1h-10.2c2.5,0.6,4,1.7,4.5,3
		c0.3,0.9,0.3,1.8-0.2,2.5c-0.5,0.7-1.1,1.1-1.9,1.3c-1.9,0.3-2.9-0.5-3.2-2.2c0-1.5-0.2-2.9-0.7-4.1c-1.1,1.3-2.3,2.5-3.6,3.5
		c0.4,0.3,0.8,0.7,1,1.1c0.5,1.5,0.2,2.7-1.1,3.6h9.1l1.1-1.9c0.4-0.6,1-0.7,1.8-0.3c1.6,1.1,2.9,2.3,3.8,3.4
		c0.6,1.1,0.2,1.7-1.1,1.6c-1.8,0-3.4,0.6-4.8,1.9c-1,0.7-1.5,0.6-1.5-0.4l0.7-3.2H359c0.3,1.8-0.1,3.3-1.3,4.4
		c-0.6,0.5-1.3,0.7-2.1,0.7c-0.8,0-1.4-0.2-1.9-0.7c-1-1.2-0.9-2.4,0.2-3.5c1.2-0.8,1.9-2.2,2.1-4c0.1-0.9,0.6-1.1,1.3-0.4
		c0.5,0.6,1,1.4,1.4,2.4h10.2c-0.6-0.3-0.9-1-0.9-2.2c0.1-0.9-0.1-1.8-0.7-2.8C366.7,142.8,367,142.4,368.1,142.4z M360.1,161v-3.2
		c0-0.7-0.1-1.8-0.1-3.4c0-1.5-0.1-2.6-0.1-3.2c-0.1-0.9,0.3-1.3,1.3-1.1c2.1,0.1,4,0.7,5.6,1.8h7l1.5-1.6c0.5-0.4,1-0.4,1.6,0
		c1.3,0.9,2.4,1.7,3.2,2.6c0.4,0.5,0.4,0.9,0.1,1.4l-0.7,0.7c0,0.2,0,0.5,0.1,1.1c0,0.5,0.1,1,0.1,1.4c-0.2,1.2-1.5,1.9-4,1.9
		c-1.1,0-1.7-0.4-1.6-1.2v-0.3h-8v3.7h9.2l1.4-1.6c0.5-0.5,1-0.6,1.6-0.4c1.6,0.9,2.7,1.8,3.6,2.7c0.4,0.5,0.4,0.9,0,1.4l-0.7,0.7
		c0,0.5,0,1.1,0.1,1.8s0.1,1.3,0.1,1.8c-0.1,1.6-1.5,2.4-4.2,2.4c-1.1,0-1.7-0.3-1.6-1.2V168h-9.5v0.4c0,0.8-0.5,1.3-1.4,1.6
		c-0.9,0.3-1.9,0.4-3.1,0.4c-0.9,0-1.4-0.6-1.4-1.6c0-0.7,0-2,0.1-3.8S360,162,360.1,161z M373.9,153.1h-7.4c-0.4,0-0.6,0.4-0.6,1
		v2.6h8V153.1z M375.3,162.8h-9.5v4h9.5V162.8z"/>
	<path class="st3" d="M403.5,139.1H400c0,0.3,0,0.6-0.3,0.9c-0.5,0.1-0.7,0.5-0.7,1v6.8c0.5-1,0.9-1.7,1.2-2.1
		c0.4-0.3,0.8-0.3,1.2-0.1c0.9,0.6,1.7,1.4,2.4,2.4c0.4,0.7,0.2,1.1-0.5,1.3h-4.3v8.7c2-0.5,3.9-1,5.6-1.6c1-0.1,1.2,0.3,0.6,1.1
		c-1.6,1.1-3.8,2.5-6.4,4.2c-2.6,1.7-4.5,3-5.5,3.8c-0.9,0.8-1.7,0.8-2.3-0.1c-0.7-1.2-1.4-2.5-2-4.2c-0.3-0.7,0-1.1,0.8-1.3
		c1-0.3,2.3-0.6,3.7-0.9v-9.7h-0.6c-0.9,0-1.7,0.1-2.4,0.1l-1-1.6c1.1,0.1,2.2,0.2,3.3,0.2h0.7v-9.1h-1.7c-0.5,0-1.1,0.1-1.8,0.1
		l-1-1.6c0.8,0.1,1.7,0.2,2.7,0.2h6.5c0.3-0.8,0.8-1.7,1.4-2.4c0.5-0.4,1-0.4,1.6,0.1c0.9,0.7,1.7,1.5,2.4,2.4
		C404,138.6,403.9,139,403.5,139.1z M401.2,167.7l-1.3-1.8c1.4,0.2,3,0.3,4.8,0.3h6.7v-6.6H408c-1.2,0-2.2,0.1-3,0.3l-0.9-1.6
		c0.8,0,2.3,0.1,4.5,0.1h2.9v-5.6h-2.7v0.5c0,0.7-0.4,1.2-1.1,1.6c-0.7,0.4-1.4,0.6-2.2,0.6c-1.2,0.1-1.7-0.4-1.7-1.6
		c0-1.1,0-2.5,0.1-4.3c0-1.7,0-3.3,0.1-4.6v-5.1c0-2-0.1-3.5-0.1-4.5c-0.1-0.7,0.3-0.9,1-0.8c1.8,0.3,3.4,0.9,4.8,1.9h8.9l1.2-1.5
		c0.3-0.4,0.7-0.5,1.2-0.3c1.2,0.4,2.4,1.3,3.8,2.5c0.5,0.5,0.5,1.1,0,1.6l-0.7,0.7v4.6c0,1.2,0,2.6,0,4.2c0,1.5,0.1,2.8,0.1,3.7
		c-0.1,1.8-1.3,2.6-3.5,2.7c-1,0.1-1.4-0.4-1.4-1.4v-0.4h-2.7v5.6h2.2c0.4-0.9,0.9-1.8,1.7-2.7c0.4-0.4,0.8-0.5,1.3-0.1
		c1.1,0.6,2.2,1.5,3.3,2.6c0.5,0.8,0.4,1.3-0.4,1.4h-8.1v6.6h3.5c0.4-0.9,1-1.8,1.7-2.6c0.4-0.5,1-0.6,1.6-0.1
		c1.2,0.7,2.3,1.6,3.2,2.6c0.5,0.8,0.3,1.3-0.4,1.4h-6.3h-14.9C403.5,167.3,402.3,167.4,401.2,167.7z M408.8,138.5v5.6h2.7v-6.5
		h-2.3C408.9,137.7,408.8,138,408.8,138.5z M408.8,145.3v6.4h2.7v-6.4H408.8z M419.1,137.6h-2.7v6.5h2.7V137.6z M416.5,145.3v6.4
		h2.7v-6.4H416.5z"/>
	<path class="st3" d="M437.5,166c-1.2-0.6-1.2-1,0.1-1.2c1.2,0.2,2.4,0.3,3.6,0.3c1.7,0.1,2.5-0.7,2.4-2.3v-6
		c-1.9,0.3-3.9,0.6-6.1,0.9c1.6,0.6,3,1.5,4.2,2.8c0.6,1.1,0.5,1.8-0.5,2l-1.6,0.1c-1.6,1-3.3,2-5,2.8s-3.8,1.6-6.1,2.4
		c-1,0.2-1.2-0.1-0.6-0.9c2.8-2.4,5.3-5.3,7.4-8.6c-0.5,0-1,0.3-1.6,0.8c-0.8,0.6-1.4,0.5-1.9-0.5c-0.6-1.1-1-2.6-1.2-4.5
		c-0.1-0.7,0.2-1.2,1.1-1.3c2.2-0.1,4.2-0.7,6-1.6c1.8-0.9,3.7-2,5.5-3.5c-2.2,0.3-4.3,0.8-6.4,1.7c-1.3,0.7-2,0.7-2.2-0.1
		c-0.6-1.5-1-2.9-1.1-4.2c-0.1-0.7,0.3-1.1,1.2-1.3c1.6-0.3,3.3-1.6,5-4.1c-2.8,0-5.9,0.1-9.5,0.1c-0.6,0-1-0.2-1-0.5
		c-0.1-0.3,0.2-0.5,0.9-0.7c6.9-0.8,12.7-1.8,17.5-3c3-0.6,5.5-1.4,7.6-2.2c0.7-0.4,1.4-0.3,2.2,0.3c1.3,1,2.7,2.3,4.3,3.8
		c0.6,1,0.3,1.5-0.8,1.5l-0.7-0.1c-1.6,0.1-3.3,0.1-5.3,0.2c-2.8,0.1-5.1,0.2-6.8,0.4c0.4,0.4,0.6,0.8,0.5,1.3
		c-0.1,0.4-0.3,0.6-0.7,0.6l-1.3-0.1c-2.7,1.3-5.4,2.4-8.3,3.5c3.6,0,6.4,0,8.5-0.1c1.7-1.6,2.9-3.1,3.6-4.4
		c0.4-0.6,1.1-0.7,1.9-0.3c2.3,1,4.2,2,5.8,3.1c0.5,0.5,0.8,1,0.7,1.4c-0.1,0.5-0.4,0.7-1,0.7l-1.3-0.1c-2.8,1.5-5.8,3-9,4.6
		c-3.2,1.6-6,2.7-8.4,3.5c3.6,0,8.5,0,14.8-0.3c-0.3-0.4-1.3-1.6-2.9-3.6c-0.5-0.7-0.4-1,0.3-1c5,1.2,8.2,2.7,9.6,4.7
		c0.6,1.1,0.9,2.2,0.8,3.2c-0.1,1-0.7,1.8-1.8,2.4c-1.8,1-3.1,0.4-4.1-1.9c-0.2-0.5-0.4-1-0.7-1.6c-1.3,0.3-2.9,0.6-4.7,0.9
		c0.6,0.7,0.6,1.3-0.1,1.8l-0.8,0.5v3.6c0,1.3,0,2.5,0.1,3.8c0.2,3.2-1.8,5-6,5.3c-1.3,0.1-2-0.3-2.2-1.1c-0.3-1.2-0.8-2-1.4-2.5
		C439.6,166.7,438.7,166.4,437.5,166z M451,159.6c-0.7-0.7-0.6-1,0.4-1c5,0.4,8.4,1.6,10.2,3.6c1.5,2.1,1.4,3.8-0.3,5.1
		c-2,1.4-3.6,0.8-4.8-1.6C455.3,163.6,453.5,161.6,451,159.6z"/>
	<path class="st3" d="M479.5,154.4c1.5,0.3,1.7,0.7,0.5,1.3c-1.5,0.5-3.2,1.1-5.2,1.9c-2,0.7-3.4,1.4-4.3,1.9
		c-0.8,0.7-1.5,0.7-1.9,0c-0.8-1.6-1.4-2.9-1.7-4c-0.1-0.5,0.2-0.9,1-1.3c1-0.4,1.8-0.9,2.4-1.7c0.9-1,1.8-2.4,2.8-4
		c-0.9,0.3-1.7,0.6-2.5,0.9c-0.8,0.3-1.4,0.6-1.7,0.8c-1,0.7-1.7,0.7-2,0c-0.2-0.4-0.5-1-0.8-1.7c-0.3-0.7-0.5-1.3-0.6-1.8
		c-0.2-0.5-0.1-0.9,0.3-1.2c0.4-0.1,0.7-0.3,1.1-0.4c0.7-0.3,1.3-1,1.8-2.3c0.8-2,1.6-4.6,2.2-7.6c0.2-1.2,0.8-1.6,1.8-1.3
		c2.3,0.7,3.8,1.3,4.6,1.8c0.7,0.5,0.6,1.1-0.3,1.6l-0.8,0.3c-1,1.3-2,2.7-2.8,4c-0.8,1.4-2.1,2.8-3.7,4.3c1.4,0,2.9,0,4.4-0.1
		c0.2-0.5,0.6-1.2,0.9-2.1c0.4-0.9,0.6-1.6,0.8-2.2c0.1-0.7,0.6-1,1.5-0.8c0.6,0.2,1.4,0.5,2.3,0.9c0.9,0.4,1.7,0.9,2.3,1.3
		c0.7,0.6,0.7,1.2,0,1.6l-1,0.4c-1.1,1.5-2.4,3.1-4,4.8c-1.5,1.7-3.2,3.2-5.2,4.4C474.5,154.3,477,154.3,479.5,154.4z M467.3,161.5
		c1.7-0.3,3.8-0.7,6.3-1.2c2.5-0.4,4.7-0.8,6.6-1.2c1-0.1,1.2,0.2,0.5,0.9c-1.4,1-3.4,2.1-5.9,3.4c-2.5,1.3-4.1,2.2-4.9,2.9
		c-1.1,1.2-1.8,1.3-2.3,0.4c-0.8-1.4-1.4-2.6-1.7-3.6C465.5,162.3,466,161.8,467.3,161.5z M487.6,156.3c-0.2,7.6-4.9,12.1-14.2,13.5
		c-1,0-1.1-0.4-0.4-1c6.1-3.2,9.2-7,9.2-11.4c0-0.9,0-1.9-0.1-3c-0.1-0.8,0.2-1.1,1.1-1c1.4,0.1,2.9,0.2,4.5,0.5
		c1.2,0.5,1.4,1,0.6,1.6l-0.7,0.4V156.3z M495.9,151.9c0.2,1,0.7,1.6,1.4,1.8s1.5,0,2.3-0.7c1.2-1.4,1.4-2.9,0.7-4.6
		c-1.2-1.9-3.6-3.2-7.3-4c-0.6-0.1-1,0-1.1,0.3c-0.1,0.3,0,0.5,0.2,0.8c1,1.2,1.7,2.2,2.2,3c-3.8,0.1-6.8,0.1-9.1,0.1
		c2.3-1.6,4.5-3.5,6.5-5.6l0.9-0.1c0.6-0.1,0.8-0.4,0.6-1h8.7c0.6-0.1,0.7-0.5,0.3-1.3c-1-1.2-2-2.1-3.1-2.7
		c-0.8-0.5-1.5-0.5-1.9-0.1c-0.3,0.3-0.6,0.8-1,1.4c-0.4,0.6-0.7,1.1-0.9,1.4H484c-1.4,0-2.9-0.1-4.5-0.2l1.1,1.6
		c1.2-0.1,2.3-0.2,3.1-0.2h2.2c-0.7,1.5-1.5,2.8-2.5,4.1c-0.9,1-1.9,1.6-2.9,1.8c-0.9,0-1.2,0.6-1,1.7c0.5,1.5,1,2.7,1.4,3.5
		c0.3,0.6,0.8,0.7,1.3,0.4c0.4-0.3,1.3-0.6,2.6-1c2.3-0.6,5.8-1.3,10.5-2.3C495.7,150.8,495.9,151.4,495.9,151.9z M486.4,133.6
		c3.5-0.1,5.9,0.8,7.1,2.8c0.4,0.9,0.4,1.7-0.1,2.4c-0.5,0.7-1.2,1.3-2.1,1.6c-2.1,0.5-3.2-0.2-3.3-2.2c-0.2-1.1-0.8-2.4-1.9-3.8
		C485.8,134,485.9,133.7,486.4,133.6z M494.7,155.6v8c-0.2,1,0.2,1.4,1.2,1.4h1.1c0.4,0.1,0.8-0.2,1.2-0.9c0.4-0.7,0.8-2,1.2-4.1
		c0.1-0.6,0.4-0.9,0.7-0.8c0.3,0,0.5,0.3,0.6,0.8c-0.1,3.3,0.3,5.3,1.2,5.8c0.4,0.4,0.7,0.9,0.7,1.5s-0.3,1.2-0.9,1.6
		c-0.7,0.6-2.4,0.8-5.1,0.8h-2.7c-3.1,0.1-4.5-1.3-4.3-4.2v-6.5c0-2.1-0.1-3.8-0.2-5c-0.1-0.6,0.2-0.9,1-1c0.6,0,1.5,0.1,2.4,0.2
		c1,0.1,1.8,0.2,2.3,0.3c0.9,0.4,1,0.9,0.3,1.6L494.7,155.6z"/>
</g>
<g>
	<path class="st3" d="M215.4,41.5v37.4c0,3.2,0.2,4.5,0.9,5.9c1.2,2.4,3.8,3.9,6.6,3.9c4.4,0,7.5-3.4,7.5-8.2v-1.6V41.5h16.7v35v2.2
		c0,8.8-2,14.1-6.7,19.2c-4.5,4.7-10.7,7.2-17.4,7.2c-7.3,0-13.7-2.8-18.3-8.1c-4.2-4.9-5.9-9.9-5.9-18.3v-2.2v-35H215.4z"/>
	<path class="st4" d="M256.2,85.9v-3c0-7.3,1.5-11.9,5-16.3c4.5-5.5,11.2-8.8,18.5-8.8c13,0,23.3,10.4,23.3,23.5
		c0,13.4-10.4,23.5-24.1,23.5c-1.8,0-2.7-0.1-4.7-0.6V88.7c2.1,0.7,3.3,1,4.9,1c5.2,0,8.7-3.3,8.7-8.2c0-4.9-3.4-8.4-8.1-8.4
		c-2.9,0-5.7,1.6-7,4c-0.8,1.5-1.2,3.3-1.2,6.4v2V121h-15.3V85.9z"/>
	<path class="st3" d="M397.3,100.9c-4.9,2.7-9.5,3.9-15.1,3.9c-14.8,0-25.9-10.2-25.9-23.7c0-13,10.5-23.3,23.6-23.3
		c8.3,0,15.4,3.9,20,11.1l-19,20.6c0.8,0.2,1,0.2,2,0.2c3.5,0,6.8-1.2,10.8-3.7L397.3,100.9z M379.7,72.7c-4.5,0-8.2,3.7-8.2,8.3
		c0,1.5,0.3,2.5,1.1,4.1l10.7-11.6C381.9,72.9,380.9,72.7,379.7,72.7z"/>
	<path class="st3" d="M443.7,100.9c-4.9,2.7-9.5,3.9-15.1,3.9c-14.8,0-25.9-10.2-25.9-23.7c0-13,10.5-23.3,23.6-23.3
		c8.3,0,15.4,3.9,20,11.1l-19,20.6c0.8,0.2,1,0.2,2,0.2c3.5,0,6.8-1.2,10.8-3.7L443.7,100.9z M426.1,72.7c-4.5,0-8.2,3.7-8.2,8.3
		c0,1.5,0.3,2.5,1.1,4.1l10.7-11.6C428.4,72.9,427.3,72.7,426.1,72.7z"/>
	<g>
		<g>
			<path class="st3" d="M332.2,65.1c4.4-3.1,8.8-6.1,13.2-9.2c0.8-0.6,1-1.3,0.3-2.1c-0.3-0.3-0.6-0.7-1-0.9c-0.6-0.3-1-0.8-1.3-1.4
				c-0.2-0.4-0.4-0.8-0.6-1.2c-0.3-0.6-0.3-1,0.3-1.4c0.7-0.5,1.4-1,2.1-1.4c0.4-0.3,0.8-0.2,1.1,0.2c0.9,1,2.1,1.8,2.1,3.3
				c0,0.2,0.2,0.4,0.3,0.6c0.4,0.8,1,1,1.9,0.8c0.3-0.1,0.8,0,1,0.2c0.5,0.5,0.9,1.1,1.3,1.8c0.3,0.5,0.3,1-0.1,1.5
				c-0.4,0.5-0.5,1.2,0.1,1.8c0.2,0.2,0.4,0.4,0.5,0.7c0.5,1.5,1,3,1.5,4.5c0.1,0.2,0,0.5,0,0.8c-0.3-0.1-0.6,0-0.8-0.2
				c-1.2-1-2.5-2-3.7-3c-0.2-0.2-0.4-0.4-0.5-0.6c-0.5-1-1.2-1.1-2.2-0.5c-2.6,1.8-5.2,3.6-7.7,5.4c-6.2,4.3-12.4,8.7-18.5,13
				c-0.8,0.5-1.2,0.5-1.7-0.2c-0.4-0.6-0.8-1.2-1.3-1.8c-0.5-0.7-0.4-1.2,0.4-1.7c4.4-3,8.8-6.1,13.1-9.1
				C332.2,65,332.2,65.1,332.2,65.1z M347.9,58.7c-0.4-0.4-0.7-0.7-1.1-1.1c-0.3,0.1-0.6,0.2-1,0.4c0.3-0.4,0.6-0.6,0.8-0.8
				c-0.1-0.1-0.1-0.2-0.2-0.2c-0.9,0.6-1.9,1.1-2.8,1.7c0,0,0,0-0.1-0.1c0.9-0.7,1.8-1.4,2.7-2.2c0-0.1-0.1-0.1-0.1-0.2
				c-0.2,0.1-0.4,0.2-0.6,0.3c-8.6,5.9-17.2,11.8-25.9,17.7c-0.6,0.4-0.8,0.8-0.3,1.4c0.5,0.7,0.9,1.3,1.4,2
				C329.8,71.3,338.8,65,347.9,58.7z M348.1,52.1c0.1,0.2,0.2,0.3,0.4,0.5c-0.2,0.1-0.4,0.3-0.7,0.5c2.1-0.3,3,0,3.7,1.4
				c0.7,1.4,0.5,2.4-0.9,4c0.5-0.3,0.9-0.5,1.5-0.8c1.2,0.6,1.2,2,1.9,3c0.1,0,0.2-0.1,0.2-0.1c-0.5-1-1.1-2-1.6-3
				c-0.2-0.3-0.2-0.8-0.2-1.1c0.2-1.9-0.8-3.3-2.6-3.8c-1.2-0.3-1.5-1.3-1.6-2.3c-0.2-1.4-1.4-1.9-2.4-2.7
				C347.1,48.8,347.4,50.6,348.1,52.1z"/>
			<path class="st3" d="M319.1,78c1.1,1.2,1.9,2.1,2.7,3c0.4,0.4,0.7,0.9,1.1,1.3c6.1,6.2,12.1,12.4,18.2,18.6
				c0.4,0.4,0.8,1.3,1.7,0.6c0.1-0.1,0.6,0.3,0.9,0.4c0.4-0.3,0.8-0.6,1.1-0.8c0.1,0.1,0.3,0.2,0.3,0.2c-0.4,1.9,1.2,2.4,2.2,3.2
				c3.3,2.6,6.4,5.5,9.1,8.8c1.1,1.4,1.1,3.2-0.1,4.4c-1.2,1.2-3,1.3-4.4,0.2c-3.7-2.9-6.7-6.5-9.4-10.3c-0.6-0.8-1.1-1.6-2.3-1.2
				c-0.1,0-0.2-0.2-0.3-0.3c1.1-1.8,1-2.7-0.5-4.3c-5.5-5.6-11-11.2-16.5-16.8c-1-1-2.3-1.8-3.3-2.8c-0.6-0.5-1.3-1.2-1.4-1.9
				C317.8,79.7,318.5,79,319.1,78z M341.1,105.4c0.7,0.8,1.4,1.5,2,2.2c2.6,3.6,5.5,7,8.9,9.8c1.2,1,2.7,1,3.7,0
				c1.1-1,1.1-2.5,0.1-3.7c-2.8-3.5-6.1-6.5-9.7-9.2c-0.7-0.6-1.4-1.3-2.1-2.1C343.1,103.4,342.1,104.4,341.1,105.4z M332.7,94.3
				c0.1-0.1,0.2-0.2,0.2-0.3c2.8,2.8,5.6,5.6,8.4,8.4c0.1-0.1,0.2-0.1,0.2-0.2c-0.2-0.3-0.5-0.6-0.7-0.8
				c-5.7-5.9-11.5-11.7-17.2-17.6c-0.8-0.9-1.6-1.9-2.4-2.8c-0.7-0.7-1.4-1.4-2.1-2.1c-0.4,0.4-0.7,0.7-1.1,1.2c1.2,1,2.4,2,3.5,3
				c1.9,1.9,3.7,3.8,5.6,5.8c4.5,4.5,9,9,13.4,13.4c0,0,0.1-0.1,0.1-0.1C338,99.6,335.4,97,332.7,94.3z"/>
			<g>
				<path class="st3" d="M308.7,114.6c0-2.3,1-4.2,2.3-6c0.9-1.3,1.8-3.1,1.8-4.6c0.2-17.9,0.3-35.7,0.4-53.6c0-3.6-0.6-6.8-3.7-9.4
					c-3.1-2.7-3.4-6.5-1.1-10c1.1-1.7,2.5-3.2,3.9-4.5c0.5-0.4,1.5-0.3,2.3-0.4c0,0.6,0.1,1.3,0,1.9c-0.3,1.6-0.6,3.1-1,4.7
					c-0.4,1.4,0.2,2.1,1.3,2.6c0.4,0.2,0.8,0.3,1.1,0.5c4.7,1.7,5.4,1.3,6.4-3.6c0.2-0.8,0.3-1.6,0.6-2.4c0.2-0.5,0.6-1.3,1-1.3
					c0.5,0,1.1,0.4,1.5,0.9c2.8,3.7,1.9,10.4-1.3,13.7c-1.1,1.1-2,2.9-2.1,4.5c-0.4,4.1-0.3,8.3-0.3,12.4
					c-0.1,14.6-0.1,29.2-0.2,43.8c0,2.2,0.9,3.8,2.3,5.4c2.5,2.9,2.7,7.1,0.6,10.2c-2.1,3.1-5.9,4.5-9.5,3.4
					C311.2,121.6,308.7,118.4,308.7,114.6z M320.4,107.1c0-1.7,0-3.5,0-5.2c0.1-17.1,0.2-34.2,0.3-51.3c0-3.4,0.4-6.7,3.2-9.2
					c-2.8,1.9-5.7,1.9-8.7,0.9c3.5,0,7.4,0.6,9.2-3.1c1.4-2.8,1.1-6.1,0.1-9.2c-0.5,0.8-0.7,1.6-0.9,2.4c-1.4,5.7-2.8,6.4-8.4,4.3
					c-0.3-0.1-0.5-0.2-0.8-0.3c-1.7-0.7-2.4-1.9-2-3.8c0.4-1.7,0.8-3.4,1.2-5.4c-6,4.1-7.5,10.3-2.3,14.2c1.8,1.4,2.6,3.4,2.8,5.6
					c0.1,1.4,0.2,2.8,0.2,4.2c-0.1,16.8-0.2,33.5-0.2,50.3c0,3.4-0.2,6.4-2.9,9.1c-2.2,2.2-1.8,6.2,0.1,8.7c2,2.6,5.3,3.6,8.4,2.5
					c3.2-1.1,5.2-4.1,5-7.4c-0.1-3.2-2.2-5.7-5.4-6.5c-1.1-0.3-2.3-0.4-3.4-0.6c0-0.1,0-0.2,0-0.3C317.5,106.9,319,107,320.4,107.1z
					"/>
				<path class="st3" d="M318.2,104.1c0.1-0.9,0.3-1.9,0.3-2.8c0.1-17.7,0.2-35.5,0.2-53.2c0-1.2-0.8-2.4-1.3-3.8
					c0.9-0.5,1.8,0.1,2.2,1.5c0.2,0.8,0.1,1.6,0.1,2.5c-0.1,17.7-0.1,35.3-0.2,53c0,1-0.4,2.1-0.6,3.1
					C318.6,104.3,318.4,104.2,318.2,104.1z"/>
				<path class="st3" d="M317.1,119.9c-2.7-0.1-5.3-2.8-5.3-5.5c0-2.6,3.1-5.6,5.7-5.4c2.7,0.2,5.4,3.2,5.2,5.6
					C322.6,117.4,319.8,120,317.1,119.9z M321.6,114.6c0-1.6-2.7-4.4-4.2-4.4c-1.6,0-4.4,2.8-4.3,4.3c0.1,1.7,2.8,4.3,4.3,4.2
					C318.9,118.7,321.6,116,321.6,114.6z"/>
				<path class="st3" d="M315.5,98.4c0-14.3,0-28.5,0-42.8c0.1,0,0.2,0,0.3,0c0,14.2,0,28.5,0,42.7
					C315.7,98.4,315.6,98.4,315.5,98.4z"/>
			</g>
		</g>
	</g>
	<path class="st3" d="M500,71.6c-3-4.3-7.1-7.2-11.9-9.1c-5.2-2.1-10.7-2.9-16.2-2.9c-1.6,0-3.2,0.1-4.7,0.4
		c-1.2,0.2-2.4,0.8-3.5,1.3c-5.9,2.8-9.5,7.5-10.6,13.9c-0.7,3.9-0.6,7.8,0.2,11.7c0.4,2.2,0.9,4.4,2.2,6.4c0.2,0.4,0.5,0.7,0.9,1.1
		c0.2,10,0.3,20,0.5,30c0,0.4,0.1,0.8,0.2,1.1c0.5,1.2,1.5,1.5,2.8,1.4c0.4-0.2,0.7-0.4,1.1-0.6c0.5-0.7,0.7-1.4,0.7-2.3
		c-0.2-9.2-0.3-18.3-0.4-27.5c1.9,0.2,3.9-0.4,5.4-2.2c1.2-1.4,2.3-3,3.4-4.5c1.3-1.9,2.6-3.7,4.5-5.1c3.2-2.5,6.7-4.4,10.5-5.9
		c3.5-1.4,7.1-2.6,10.6-3.9c0,0.1,0.1,0.2,0.1,0.2c1.2-0.3,2.3-0.7,3.5-0.9C500.2,74.2,500.9,72.9,500,71.6z M495.2,71.9
		c-0.7,0.2-1.4,0.4-2.1,0.6c-5.8,1.6-11.4,3.8-16.6,6.9c-2.6,1.5-5,3.3-7.1,5.4c-0.6,0.6-1.1,0.7-1.9,0.5c-3.4-0.7-6.9-1.4-10.3-2
		c-0.8-0.2-1-0.4-1.1-1.2c-0.3-2.2-0.3-4.5,0.1-6.7c0.9-5,3.7-8.5,8.1-10.8c1.2-0.6,2.4-1.2,3.7-1.5c1.3-0.3,2.7-0.2,3.9-0.3
		c-1.7,1.9-3.3,3.8-5,5.7c-0.1,0.1-0.2,0.2-0.2,0.3c-0.1,0.2-0.1,0.4-0.2,0.7c0.2,0,0.5,0,0.7-0.1c1-0.6,1.9-1.3,3-1.8
		c2.8-1.3,5.6-2.6,8.5-3.8c0.3-0.1,0.8-0.1,1.2-0.1c1.4,0.3,2.7,0.6,4.1,0.9c0.1,0,0.3,0.1,0.5,0.2c-2.6,1.1-4.9,2.5-7.1,4.1
		c0,0.1,0.1,0.2,0.1,0.3c0.4-0.1,0.8-0.2,1.2-0.3c3.2-0.8,6.3-1.6,9.5-2.5c0.2,0,0.4,0,0.5,0c0.6,0.3,1.1,0.6,1.8,1
		c-2.6,1.1-4.8,2.5-6.9,4.1c0,0,0,0.1-0.1,0.3c0.3-0.1,0.6-0.1,0.9-0.2c2.7-0.7,5.4-1.5,8.1-2.2c0.4-0.1,0.7-0.1,1,0.2
		c0.6,0.6,1.2,1.1,1.8,1.7C495.8,71.5,495.7,71.8,495.2,71.9z"/>
</g>
</svg>
